<?xml version="1.0" encoding="utf-8"?>
<!-- Generator: Adobe Adobe Illustrator 24.2.0, SVG Export Plug-In . SVG Version: 6.00 Build 0)  -->
<svg version="1.1" xmlns="http://www.w3.org/2000/svg" xmlns:xlink="http://www.w3.org/1999/xlink" x="0px" y="0px"
	 viewBox="0 0 800 800" style="enable-background:new 0 0 800 800;" xml:space="preserve">
<style type="text/css">
	.st0{opacity:0.4;fill:#575757;stroke:#000000;stroke-miterlimit:10;}
	.st1{fill:#8E9EF6;stroke:#000000;stroke-miterlimit:10;}
	.st2{fill:#1020CC;stroke:#000000;stroke-miterlimit:10;}
	.st3{fill:none;stroke:#000000;stroke-miterlimit:10;}
	.st4{fill:#F2990A;stroke:#000000;stroke-miterlimit:10;}
	.st5{fill:#00A82A;stroke:#000000;stroke-miterlimit:10;}
	.st6{fill:none;stroke:#030002;stroke-miterlimit:10;}
	.st7{fill:#303030;stroke:#45508F;stroke-miterlimit:10;}
	.st8{font-family:'GillSans-Light';}
	.st9{font-size:99.1152px;}
</style>
<g id="Layer_5">
</g>
<g id="Layer_1">
</g>
<g id="Layer_2">
	<polygon class="st0" points="511.18,55.09 303.82,55.09 136.07,180.95 72,384.59 136.07,588.23 303.82,714.09 511.18,714.09 
		678.93,588.23 743,384.59 678.93,180.95 	"/>
	<g id="Layer_4">
	</g>
	<path class="st1" d="M536.73,514.15c-14.59,14.25-12.73,34.83-11.53,53.29c1.15,17.65,4.24,38.79,0.13,56
		c-3.89,16.27-4.35,21-7.92,33.67c-1.51,5.36-4.99,13.36-12.58,25.58c-12.29,19.81-15.37,22.23-22.82,31.39
		c-49.09,0-93.65-1.16-140.73,0c-8.51-12.36-15.86-25.57-20.5-39.84c-10.58-32.47-21.29-66.06-18.15-100.07
		c1.02-11.05,3.5-22.18,1.65-33.12c-1.67-9.88-6.5-17.55-10.12-26.6c27.56,20.74,47.64,51.07,77.81,67.78
		c0.63,0.35,1.51,0.66,1.84,0.49c7,0.62,13.99,1.23,20.99,1.85c19.97,1.76,40.5,3.47,60.15-2.37c2.25-1.16,4.32-2.66,6.35-4.16
		c18.1-13.39,35.09-28.22,52.05-43.04C519.73,529.46,526.1,523.89,536.73,514.15z"/>
	<path class="st1" d="M262.96,323.16c-4.92-5.74-12-9.58-19.5-10.58c-2.48-0.33-5.28-0.27-7.13,1.41c-1.64,1.48-2.12,3.83-2.45,6.02
		c-3.06,19.95,3.18,37.28,4.42,57.43c0.53,8.53,0.17,23.43,4.59,30.74c7.54,12.46,22.01,16.1,26.26,28.03
		c4.12,11.54,8.53,59.33,24.76,77.65c3.99,4.5,11.67,11.33,16.38,15.07c10.49,8.33,17.43,17.19,26.95,26.71
		c14.22,14.22,20.57,17.86,32.25,24.96c8.47,5.15,33.54,3.95,43.41,4.89c10.32,0.99,31.06,2.04,44.06-5.46
		c9.59-5.52,21.74-14.01,34.36-25.83s14.72-14.99,30.21-25.89c5.86-4.12,14.09-13.28,20.34-20.01
		c14.84-15.98,16.24-75.83,20.96-80.17c14.06-12.95,25.27-22.29,26.44-46.04c0.84-16.99,5.46-40.94,4.15-57.9
		c-0.36-4.73-1.93-10.58-6.61-11.4c-2.14-0.38-4.28,0.5-6.23,1.45c-6.36,3.07-12.3,7.01-16.49,10.58
		c7.79-23.84,9.84-49.12,12.58-76.08c-0.1-8.97-0.2-17.94-0.29-26.91c-0.11-10.46,0.05-16.11-4.52-31.49
		c-2.45-8.24-8.96-24.55-20.42-40.28c-11.51-15.8-27.92-29.01-29.89-30.91c-7.95-7.69-12.21-11.84-22.3-16.77
		c-11.57-5.65-20.43-9.27-32.77-12.96c-7.64-2.29-23.69-7.72-31.66-8.14c-14.49-0.76-26.56-1.37-41.07,0.33
		c-15.42,1.8-37.9,8.62-50.97,17.81c-16.52,11.63-36.23,21.79-51.22,35.4c-14.99,13.61-21.6,29.14-28.98,47.94
		c-5.53,14.07-7.75,29.22-8.74,44.31c-2.02,30.74,0.93,61.79,8.7,91.6c0.3,1.17,0.42,2.75-0.68,3.24
		C260.79,322.41,260.61,319.73,262.96,323.16z"/>
	<g id="Layer_3">
	</g>
	<path class="st2" d="M410.52,174.11c0,0-24.96,13.04-36.71,21.47c-2.63,1.89-1.82,1.92-4.99,2.56c-1.25,0.25-5.4,1.14-6.36,1.98
		c-0.61,0.54-1.75,2.55-2.53,2.79c-0.58,0.18-1.2-0.03-1.78-0.23c-2.53-0.87-5.15-1.5-7.81-1.86c-1.34-0.19-2.77-0.29-3.97,0.33
		c-0.99,0.51-1.68,1.45-2.33,2.36c-1.94,2.7-3.88,5.39-5.82,8.09c-1.52,2.12-3.06,4.26-4.02,6.68c-0.99,2.51-1.33,5.23-1.66,7.91
		c-0.92,7.53-2.6,16.2,2.1,22.16c1.51,1.92,4.61,4.19,6.64,5.55c9.37,6.29,18.15,9.56,28.59,8.65c2.58-0.22,9.7-0.24,12.28,0
		c7.22,0.66,12.61,4.62,19.76,5.78c1.94,0.31,4.03,0.51,5.78-0.4c3.28-1.71,3.65-6.22,3.25-9.9c-0.95-8.86-3.71-17.41-5.29-26.18
		c-0.77-4.29-1.29-8.63-1.27-12.99c0.02-2.86,0.26-5.74,1.1-8.47c0.59-1.9,1.46-3.69,2.13-5.56c2.08-5.8,2.66-14.36,2.91-20.52
		C410.7,179.7,410.52,174.11,410.52,174.11z"/>
	<path class="st2" d="M416.99,174.11c0,0,25.36,12.97,37.31,21.36c2.68,1.88,1.85,1.91,5.08,2.55c1.27,0.25,5.49,1.13,6.47,1.97
		c0.62,0.53,1.78,2.54,2.57,2.77c0.59,0.18,1.22-0.03,1.81-0.23c2.58-0.87,5.24-1.49,7.93-1.85c1.36-0.18,2.82-0.29,4.04,0.33
		c1.01,0.51,1.71,1.45,2.37,2.35c1.97,2.68,3.94,5.37,5.91,8.05c1.55,2.1,3.11,4.24,4.08,6.65c1.01,2.5,1.35,5.2,1.68,7.87
		c0.93,7.49,2.64,16.12-2.14,22.04c-1.54,1.91-4.69,4.16-6.75,5.52c-9.53,6.26-18.45,9.51-29.05,8.6c-2.62-0.22-6.86,0-9.48,0.23
		c-7.33,0.66-12.81,4.6-20.08,5.75c-1.97,0.31-4.88,0.9-6.65,0c-3.34-1.7-4.92-7.32-4.52-10.98c0.97-8.81,2.77-16.82,4.37-25.54
		c0.78-4.26,1.31-8.59,1.29-12.92c-0.02-2.84-0.26-5.71-1.12-8.42c-0.6-1.89-1.48-3.67-2.16-5.53c-2.11-5.77-2.71-14.29-2.95-20.41
		C416.8,179.67,416.99,174.11,416.99,174.11z"/>
	<path class="st3" d="M422.46,268.11c11.42,1.03,17.31-4.85,23.27-5.59c5.12-0.64,15.54,0.57,20.62-0.31
		c7.4-1.28,22.4-8.55,27.01-13.16c5.56-5.56,3.87-24.59,1.46-30.85c-1.63-4.24-10.51-15.44-14-17.31
		c-4.72-2.53-30.06,9.14-40.32,11.16c-3.78,0.74-12.45,2.8-15.39,0.31c-8.38-7.11-8.47-32.1-8.77-43.09
		c-0.26-9.39-1.86-28.15-1.69-37.55c0.11-6.25-1.65-19.97,2.15-24.93c1.81-2.36,8.11-4.26,11.08-4.31
		c3.59-0.06,21.79,0.34,26.01,1.92c6.01,2.26,22.2,12.48,29.24,16.47c6.42,3.63,22.85,6.46,28.08,11.7
		c5.34,5.34,19.92,14.5,24.39,20.08c5.38,6.71,11.52,21.56,14.16,29.24c2.35,6.84,7.14,20.57,8.31,27.7
		c1.04,6.31,1.45,19.16,1.23,25.55c-0.17,4.94-0.84,14.81-1.54,19.7c-0.4,2.79-1.08,8.47-2.15,11.08c-1.08,2.62-3.53,8.46-6.16,9.54
		c-2.81,1.16-9.21-0.66-12-1.85c-2.57-1.09-7.15-4.52-9.85-5.23c-3.72-0.98-11.63,0.83-15.39,0c-4.24-0.94-10.79-7.96-15.08-8.62
		c-4.47-0.69-13.82-2.34-15.04-4.11"/>
	<path class="st4" d="M493.35,249.05c5.56-5.56,3.87-24.59,1.46-30.85c-1.63-4.24-11.05-18.41-15-18.07
		c-6.18,0.53-3.06,1.18-12.27,3.13c-0.94,0.2,0.28-2.21-2-3.13c-3.42-1.39-6.07,0.25-10.09-3.27c-3.34-2.92-10.78-6.25-11.97-7.72
		c-7.24-8.96-26.86-10.36-27.05-16.88c-0.26-9.39-1.96-31.15-1.79-40.55c0.11-6.25-1.65-19.97,2.15-24.93
		c1.81-2.36,8.11-4.26,11.08-4.31c3.59-0.06,21.79,0.34,26.01,1.92c6.01,2.26,22.2,12.48,29.24,16.47
		c6.42,3.63,22.85,6.46,28.08,11.7c5.34,5.34,19.92,14.5,24.39,20.08c5.38,6.71,11.52,21.56,14.16,29.24
		c2.35,6.84,7.14,20.57,8.31,27.7c1.04,6.31,1.45,19.16,1.23,25.55c-0.17,4.94-0.84,14.81-1.54,19.7c-0.4,2.79-1.08,8.47-2.15,11.08
		c-1.08,2.62-3.53,8.46-6.16,9.54c-2.81,1.16-9.21-0.66-12-1.85c-2.57-1.09-7.15-4.52-9.85-5.23c-3.72-0.98-11.63,0.83-15.39,0
		c-4.24-0.94-10.79-7.96-15.08-8.62c-4.47-0.69-13.07-2.09-14.29-3.86C482.84,255.89,488.75,253.66,493.35,249.05z"/>
	<path class="st5" d="M334.81,249.05c-5.52-5.56-3.85-24.59-1.45-30.85c1.62-4.24,10.98-18.41,14.91-18.07
		c6.14,0.53,3.04,1.18,12.2,3.13c0.94,0.2-0.28-2.21,1.99-3.13c3.4-1.39,6.03,0.25,10.03-3.27c3.32-2.92,10.72-6.25,11.9-7.72
		c7.19-8.96,26.7-10.36,26.88-16.88c0.26-9.39,1.95-31.15,1.78-40.55c-0.11-6.25,1.64-19.97-2.14-24.93
		c-1.8-2.36-8.06-4.26-11.01-4.31c-3.57-0.06-21.66,0.34-25.85,1.92c-5.98,2.26-22.06,12.48-29.06,16.47
		c-6.38,3.63-22.72,6.46-27.92,11.7c-5.3,5.34-19.8,14.5-24.24,20.08c-5.35,6.71-11.45,21.56-14.07,29.24
		c-2.34,6.84-7.09,20.57-8.26,27.7c-1.03,6.31-1.44,19.16-1.22,25.55c0.17,4.94,0.83,14.81,1.53,19.7c0.4,2.79,1.07,8.47,2.14,11.08
		c1.07,2.62,3.51,8.46,6.12,9.54c2.79,1.16,9.15-0.66,11.93-1.85c2.55-1.09,7.11-4.52,9.79-5.23c3.7-0.98,11.56,0.83,15.3,0
		c4.21-0.94,10.72-7.96,14.99-8.62c4.45-0.69,12.99-2.09,14.2-3.86C345.26,255.89,339.39,253.66,334.81,249.05z"/>
	<path class="st3" d="M503.53,246.7"/>
	<path class="st3" d="M311.66,208.89c-3.69,3.12-5.4,8.12-5.48,12.96c-0.08,4.84,1.29,9.58,2.88,14.15
		c1.36,3.92,2.92,7.83,5.39,11.16c3.53,4.77,8.66,8.03,13.68,11.19c0.66,0.42,1.22,0.93,1.89,1.35c0.25,0.16,0.7,0.21,0.92,0.01"/>
	<path class="st3" d="M497.31,259.6"/>
	<path class="st3" d="M382.15,262.56c-5.1-0.49-15.46,0.66-20.5-0.31c-7.33-1.41-22.26-8.52-26.84-13.12
		c-5.52-5.54-3.85-24.52-1.45-30.77c1.62-4.23,10.44-15.39,13.92-17.26c4.69-2.52,29.88,9.12,40.08,11.12
		c3.75,0.74,12.38,2.79,15.3,0.31c8.33-7.09,8.41-32.01,8.72-42.96c0.26-9.37,1.85-28.07,1.68-37.44
		c-0.11-6.24,1.64-19.91-2.14-24.86c-1.8-2.35-8.06-4.24-11.01-4.3c-3.57-0.06-21.66,0.34-25.85,1.92
		c-5.98,2.25-22.06,12.45-29.06,16.42c-6.38,3.62-22.72,6.45-27.92,11.66c-5.3,5.32-19.8,14.46-24.24,20.02
		c-5.35,6.69-11.45,21.5-14.07,29.15c-2.34,6.82-7.09,20.51-8.26,27.62c-1.03,6.29-1.44,19.1-1.22,25.47
		c0.17,4.92,0.83,14.77,1.53,19.64c0.4,2.79,1.07,8.45,2.14,11.05c1.07,2.62,3.51,8.43,6.12,9.51c2.79,1.16,9.15-0.66,11.93-1.84
		c2.55-1.09,7.11-4.51,9.79-5.22c3.7-0.98,11.56,0.83,15.3,0c4.21-0.93,10.72-7.93,14.99-8.59c4.45-0.69,13.73-2.33,14.95-4.1"/>
	<path class="st3" d="M333.36,218.37c1.62-4.23,10.44-15.39,13.92-17.26c4.69-2.52,29.88,9.12,40.08,11.12
		c3.75,0.74,12.38,2.79,15.3,0.31c8.33-7.09,8.41-32.01,8.72-42.96c0.26-9.37,1.85-28.07,1.68-37.44
		c-0.11-6.24,1.64-19.91-2.14-24.86c-1.8-2.35-8.06-4.24-11.01-4.3c-3.57-0.06-21.66,0.34-25.85,1.92
		c-5.98,2.25-22.06,12.45-29.06,16.42c-6.38,3.62-22.72,6.45-27.92,11.66c-5.3,5.32-19.8,14.46-24.24,20.02
		c-5.35,6.69-11.45,21.5-14.07,29.15c-2.34,6.82-7.09,20.51-8.26,27.62c-1.03,6.29-1.44,19.1-1.22,25.47
		c0.17,4.92,0.83,14.77,1.53,19.64c0.4,2.79,1.07,8.45,2.14,11.05c1.07,2.62,3.51,8.43,6.12,9.51c2.79,1.16,9.15-0.66,11.93-1.84
		c2.55-1.09,7.11-4.51,9.79-5.22c3.7-0.98,11.56,0.83,15.3,0c4.21-0.93,10.72-7.93,14.99-8.59c4.45-0.69,13.73-2.33,14.95-4.1"/>
	<path class="st3" d="M405.4,268.08c-6.31,0-17.32-4.78-23.25-5.52"/>
	<path class="st3" d="M516.39,208.94c3.71,3.13,5.44,8.14,5.51,13c0.08,4.85-1.3,9.61-2.9,14.19c-1.37,3.93-2.94,7.85-5.42,11.19
		c-3.55,4.78-8.72,8.05-13.76,11.22c-0.67,0.42-1.33,0.84-2,1.25"/>
	<path class="st6" d="M485.42,228.03c-7.46-1.99-21.26,12.69-27.74,17.67c-4.04,3.11-15.06,3.18-19.11,0.55
		c-3.31-2.16-15.24-3.8-19.09-2.93"/>
	<path class="st6" d="M421.56,207.39c6.95,11.64-13.26,60.94,1.62,60.94"/>
	<path class="st3" d="M532.74,243.32c2.73-0.11,5.76-0.11,7.81,1.69c0.93,0.81,1.55,1.91,2.15,2.99c1.44,2.58,2.88,5.15,4.31,7.73
		c2.19,3.93,4.49,7.98,8.09,10.67"/>
	<path class="st3" d="M517.72,177.1c2.83-2.06,6.9-2.22,9.89-0.4"/>
	<path class="st3" d="M518.6,204.73c0.23-4.45-1.77-8.77-4.49-12.3c-2.72-3.53-6.9-6.19-10.08-9.31
		c-8.1-7.93-14.67-17.25-21.2-26.52c-4.31-6.12-8.74-12.53-9.89-19.92c-0.41-2.6-0.31-5.49,1.33-7.55
		c2.39-2.99,6.86-2.97,10.67-2.69"/>
	<path class="st3" d="M467.06,203.26c-3.99-6.36-3.67-14.57-1.71-21.82c0.82-3.05,1.93-6.07,3.82-8.6c1.9-2.55,4.5-4.47,7.11-6.29
		c3.03-2.12,6.12-4.15,9.26-6.09"/>
	<path class="st3" d="M465.54,200.13c-12.28-3.01-21.62-12.26-32.69-18.38c-5.86-3.24-21.69-7.7-14.65-12.64
		c2-1.4,2.89,0.18,5.06-0.93c2.17-1.11,3.77-3.06,5.3-4.96c6.32-7.83,12.75-15.84,16.22-25.28c1.26-3.43,2.18-7.14,4.61-9.88
		c2.74,0.37,4.55,2.96,6,5.31c1.86,3.02,3.7,6.06,5.52,9.1c-3.34,0.66-5.45-3.98-8.8-4.6c-2.46-0.46-5.22,1.36-7.37,0.08"/>
	<path class="st3" d="M429.53,102.97c0,5.21-3.63,10.77-5.2,15.73c-0.91,2.9-1.83,6.82-2.2,9.83c-0.09,0.7-0.1,1.51,0.41,2.01
		c0.93,0.9,2.72-2.72,3.52-3.74c1.42-1.79,1.6-2.52,3.64-4.29c1.33-1.15,4.37-2.14,5.92-2.97c1.73-0.93,1.58-0.44,3.7-0.87
		c2.22-0.45,3.71-0.83,6.44-1.13c0.92-0.1,3.95-0.14,4.77,0.3c3.34,1.8,4.22,2.55,5.07,3.29c1.62,1.41,2.82,1.63,3.83,3
		c1.82,2.48,1.51-2.09-0.95-3.86c-7.54-5.42-9.35-5.18-12.96-11.01c-0.24-0.39-1.01-3.31-1.43-3.5c-0.45-0.2-2.45-0.4-2.94-0.45
		c-3.12-0.36-0.08,2.86-3.35,2.48c-3.05-0.35-4.26,4.94-2.81,7.65c0.11,0.2,1.54,3.37,1.41,3.56"/>
	<path class="st3" d="M299.64,268.13c1.04-5.73-0.48-20.58-4.46-25.55c-2.58-3.23-5.12-12.86-6.64-17.21
		c-1.61-4.63,6.12-19.74,6.56-25.71c0.74-10.15,6.26-16.4,5.91-22.26c-0.34-5.63,4.94-14.54,7.67-18.82
		c3.04-4.77,9.04-14.55,12.09-19.32c3.93-6.17,6.93-9.59,10.26-11.52c13.55-7.84,15.22-5.91,11.68-1.02
		c-3.79,5.22-11.5,10.7-14.61,16.05c-3.44,5.92-9.94,14.57-9.34,20.62c0.39,3.91,1.63,7.44-4.12,15.15
		c-0.95,1.27-2.26-1.84-3.73-1.26c-3.77,1.49-5.36,10.6-4.5,14.57c0.98,4.52,2.52,14.62,6.18,17.44c4.43,3.42,21.91-0.95,23.73,4.35
		"/>
	<path class="st6" d="M342.7,228.17c7.41-1.98,21.13,12.65,27.57,17.62c4.02,3.1,16.71,3.42,20.74,0.8
		c3.29-2.15,13.66-3.79,17.49-2.92"/>
	<path class="st6" d="M406.22,207.39c-6.91,11.6,13.25,60.8-0.82,60.69"/>
	<path class="st3" d="M295.66,243.41c-2.72-0.11-5.72-0.11-7.77,1.69c-0.92,0.81-1.54,1.91-2.13,2.98
		c-1.43,2.57-2.86,5.14-4.29,7.71c-2.18,3.92-4.46,7.95-8.04,10.64"/>
	<path class="st3" d="M310.69,177.09c-2.08-2.38-6.86-2.22-9.83-0.4"/>
	<path class="st3" d="M309.46,204.43c-0.23-4.44,1.76-8.74,4.47-12.27c2.7-3.52,7.11-5.67,10.28-8.79
		c8.05-7.91,14.58-17.2,21.07-26.44c4.28-6.1,8.69-12.49,9.84-19.87c0.4-2.59,0.31-5.48-1.32-7.53c-2.37-2.98-6.81-2.97-10.61-2.68"
		/>
	<path class="st3" d="M360.95,203.47c3.96-6.35,3.65-14.53,1.7-21.76c-0.82-3.04-1.92-6.05-3.8-8.58c-1.89-2.54-4.47-4.46-7.06-6.28
		c-3.01-2.11-6.08-4.14-9.2-6.08"/>
	<path class="st3" d="M362.45,200.13c12.2-3,21.49-12.76,32.49-18.86c5.83-3.23,21.56-7.68,14.56-12.6
		c-1.98-1.39-2.88,0.93-5.03-0.18c-2.16-1.11-3.74-3.05-5.27-4.94c-6.28-7.8-12.67-15.79-16.12-25.21
		c-1.25-3.42-2.17-7.12-4.58-9.85c-2.73,0.36-4.52,2.95-5.96,5.3c-1.84,3.02-3.67,6.04-5.49,9.08c3.32,0.66,5.42-3.97,8.75-4.59
		c2.45-0.45,5.19,1.35,7.33,0.08"/>
	<path class="st3" d="M398.25,103.47c0,5.19,3.61,10.74,5.17,15.69c0.91,2.89,1.82,6.8,2.19,9.81c0.09,0.7,0.1,1.51-0.4,2
		c-0.92,0.89-2.71-2.72-3.5-3.72c-1.41-1.79-1.59-2.51-3.62-4.28c-1.32-1.15-4.35-2.13-5.88-2.96c-1.72-0.93-1.57-0.44-3.67-0.87
		c-2.21-0.45-3.69-0.83-6.4-1.12c-0.92-0.1-3.93-0.14-4.74,0.3c-3.32,1.79-4.2,2.55-5.04,3.28c-1.61,1.41-2.81,1.63-3.8,2.99
		c-1.81,2.47-1.5-2.09,0.94-3.85c7.49-5.41,9.29-5.16,12.88-10.98c0.24-0.39,1-3.3,1.42-3.49c0.45-0.2,2.44-0.39,2.92-0.45
		c3.11-0.36,0.08,2.86,3.33,2.48c3.03-0.35,4.23,4.93,2.8,7.63c-0.11,0.2-1.53,3.36-1.4,3.55"/>
	<path class="st1" d="M340.96,714.09h-37.13l-113.72-86.14c0,0,73.95-44.47,112.52-53.17C301.72,623.94,315.82,673.28,340.96,714.09
		z"/>
	<path class="st1" d="M626.36,627.36c0,0-63.1-49.81-101.02-51.47c4.26,23.35,2.28,30.35,0.93,44.56
		c-0.58,6.1-6.17,28.66-8.51,35.79c-2.36,7.2-8.51,21.69-12.6,28.07c-7.06,11.02-13.75,20.3-22.77,29.77h29.11L626.36,627.36z"/>
	<path class="st3" d="M528.74,268.11c-1.05-5.75,0.48-20.64,4.48-25.62c2.6-3.24,5.15-12.89,6.68-17.26
		c1.62-4.65-6.16-19.8-6.6-25.79c-0.74-10.18-6.3-16.45-5.95-22.32c0.34-5.65-4.97-14.58-7.71-18.87
		c-3.06-4.79-9.1-14.59-12.16-19.37c-3.96-6.19-6.97-9.62-10.32-11.55c-13.63-7.86-15.31-5.92-11.75-1.02
		c3.81,5.23,11.57,10.73,14.7,16.1c3.46,5.93,10,14.62,9.4,20.68c-0.39,3.92-1.64,7.46,4.14,15.19c0.96,1.28,2.27-1.85,3.75-1.26
		c3.79,1.5,5.4,10.63,4.53,14.61c-0.98,4.54-2.53,14.67-6.21,17.49c-4.46,3.43-22.04-0.95-23.88,4.36"/>
	<text transform="matrix(1 0 0 1 278.0094 399.3894)" class="st7 st8 st9">I E X S</text>
</g>
</svg>
